<mxfile host="app.diagrams.net" modified="2023-04-07T03:58:42.850Z" agent="Mozilla/5.0 (Macintosh; Intel Mac OS X 10_15_7) AppleWebKit/537.36 (KHTML, like Gecko) Chrome/111.0.0.0 Safari/537.36" version="21.1.5" etag="jJjtgNi93Mlk84H2oRV8" type="github">
  <diagram name="第 1 页" id="AiCAKRZmUft4-7AKqG83">
    <mxGraphModel>
      <root>
        <mxCell id="0" />
        <mxCell id="1" parent="0" />
      </root>
    </mxGraphModel>
  </diagram>
</mxfile>
